<?xml version="1.0" encoding="UTF-8"?>
<svg id="Layer_1" xmlns="http://www.w3.org/2000/svg" version="1.1" viewBox="0 0 3149.97 546.27">
  <!-- Generator: Adobe Illustrator 29.6.1, SVG Export Plug-In . SVG Version: 2.1.1 Build 9)  -->
  <defs>
    <style>
      .st0 {
        fill: #fff2e1;
      }

      .st1 {
        fill: #cdb382;
      }
    </style>
  </defs>
  <path class="st1" d="M542.18,315.89L355.15,0l-187.03,315.89L0,154.15l95.73,329.29,3.96,13.58,76.21-127.54,179.26,176.79,179.26-176.79,76.21,127.54,99.69-342.88-168.12,161.74ZM643.28,264.49l-42.72,147.78-41.06-67.26,83.78-80.52ZM516.92,340.25l-161.76,159.53-161.76-159.53L355.15,72.63l161.76,267.63ZM150.81,345.01l-41.06,67.26-42.72-147.78,83.78,80.52Z"/>
  <g>
    <path class="st0" d="M1908.55,199.64c-3.33-4.78-5.93-9.53-7.81-12.85.75,6.25.75,11.4.75,16.54v204.43h-16.33V138.62h.36l115.1,166.58,115.06-166.58h.37v269.15h-16.32v-204.43c0-5.14,0-10.29.74-16.54-1.85,3.31-4.47,8.06-7.8,12.85l-92.05,132.77-92.06-132.77Z"/>
    <path class="st0" d="M2289.33,138.5h.77l118.39,269.16h-17.05l-31.95-72.43h-139.92l-31.55,72.43h-17.46l118.77-269.16ZM2353.56,321.24l-63.84-145.58-63.84,145.58h127.68Z"/>
    <path class="st0" d="M2481.48,191.08c-2.62-2.89-5.95-6.51-7.06-8.68.38,2.17.75,6.16.75,11.59v209.44h-16.33V138.63h.38l177.4,216.69c2.62,3.25,5.96,6.88,7.06,8.68-.36-1.8-.75-5.81-.75-11.59v-209.08h16.33v264.44h-.36l-177.42-216.69Z"/>
    <path class="st0" d="M2826.29,138.62h.77l118.39,269.16h-17.06l-31.94-72.43h-139.92l-31.55,72.43h-17.46l118.77-269.16ZM2890.51,321.36l-63.84-145.58-63.84,145.58h127.68Z"/>
    <path class="st0" d="M2993.7,391.83v-16.64c15.59,7.26,42.32,17.37,73.11,17.37,37.13,0,66.07-17.72,66.07-48.1s-13.74-46.31-64.59-64.4c-56.42-19.9-74.6-43.04-74.6-77.41,0-41.24,37.85-64.04,80.92-64.04,25.96,0,48.99,7.6,61.98,13.74v16.28c-14.11-6.13-38.98-14.82-62.35-14.82-36.38,0-63.49,18.8-63.49,48.11,0,26.78,12.23,45.22,64.2,63.66,56.45,19.9,74.99,41.59,74.99,78.13,0,40.52-36.75,64.04-83.16,64.04-30.43,0-57.16-8.33-73.11-15.94"/>
    <path class="st0" d="M970.01,138.61h.75l118.41,269.16h-17.08l-31.92-72.43h-139.92l-31.57,72.43h-17.43l118.77-269.16ZM1034.24,321.36l-63.84-145.58-63.84,145.58h127.68Z"/>
    <polygon class="st0" points="1144.22 407.77 1144.22 138.62 1160.56 138.62 1160.56 393.58 1283.05 393.58 1283.05 407.77 1144.22 407.77"/>
    <polygon class="st0" points="1432.08 248.88 1537.11 407.77 1517.08 407.77 1420.94 261.22 1356.35 334.12 1356.35 407.77 1340.02 407.77 1340.02 138.61 1356.35 138.61 1356.35 312.07 1509.27 138.61 1530.07 138.61 1432.08 248.88"/>
    <path class="st0" d="M1710.93,138.5h.77l118.39,269.16h-17.05l-31.95-72.43h-139.92l-31.55,72.43h-17.44l118.75-269.16ZM1775.16,321.24l-63.84-145.58-63.84,145.58h127.68Z"/>
  </g>
</svg>