<svg width="1440" height="900" viewBox="0 0 1440 900" fill="none" xmlns="http://www.w3.org/2000/svg">
  <rect width="1440" height="900" fill="#050505"/>
  <defs>
    <radialGradient id="primaryGlow" cx="0" cy="0" r="1" gradientUnits="userSpaceOnUse" gradientTransform="translate(1110 192) rotate(136) scale(620 420)">
      <stop stop-color="#ffffff" stop-opacity="0.22"/>
      <stop offset="0.42" stop-color="#1f1f1f" stop-opacity="0.14"/>
      <stop offset="1" stop-color="#050505" stop-opacity="0"/>
    </radialGradient>
    <linearGradient id="glass" x1="120" y1="80" x2="1320" y2="230" gradientUnits="userSpaceOnUse">
      <stop stop-color="#ffffff" stop-opacity="0.2"/>
      <stop offset="0.48" stop-color="#ffffff" stop-opacity="0.08"/>
      <stop offset="1" stop-color="#ffffff" stop-opacity="0.16"/>
    </linearGradient>
    <filter id="blurred" x="-20%" y="-20%" width="140%" height="140%" color-interpolation-filters="sRGB">
      <feGaussianBlur stdDeviation="18"/>
    </filter>
  </defs>
  <rect width="1440" height="900" fill="url(#primaryGlow)"/>
  <g opacity="0.42">
    <path d="M0 90H1440M0 180H1440M0 270H1440M0 360H1440M0 450H1440M0 540H1440M0 630H1440M0 720H1440M0 810H1440" stroke="#ffffff" stroke-opacity="0.06"/>
    <path d="M90 0V900M180 0V900M270 0V900M360 0V900M450 0V900M540 0V900M630 0V900M720 0V900M810 0V900M900 0V900M990 0V900M1080 0V900M1170 0V900M1260 0V900M1350 0V900" stroke="#ffffff" stroke-opacity="0.05"/>
  </g>
  <rect x="72" y="52" width="1296" height="86" rx="43" fill="url(#glass)" stroke="#ffffff" stroke-opacity="0.16"/>
  <rect x="88" y="68" width="54" height="54" rx="27" fill="#ffffff" fill-opacity="0.13"/>
  <circle cx="115" cy="95" r="10" fill="#fff"/>
  <text x="160" y="103" fill="#f7f7f7" font-family="Inter, Arial, sans-serif" font-size="20" font-weight="700">Alkamanas UI</text>
  <text x="482" y="101" fill="#f7f7f7" fill-opacity="0.74" font-family="Inter, Arial, sans-serif" font-size="13" font-weight="700" letter-spacing="6">BLOCKS</text>
  <text x="642" y="101" fill="#f7f7f7" fill-opacity="0.74" font-family="Inter, Arial, sans-serif" font-size="13" font-weight="700" letter-spacing="6">COMPONENTS</text>
  <text x="858" y="101" fill="#f7f7f7" fill-opacity="0.74" font-family="Inter, Arial, sans-serif" font-size="13" font-weight="700" letter-spacing="6">DOCS</text>
  <rect x="1128" y="70" width="198" height="50" rx="25" fill="#ffffff"/>
  <text x="1172" y="102" fill="#050505" font-family="Inter, Arial, sans-serif" font-size="13" font-weight="800" letter-spacing="4">VIEW UI</text>
  <text x="88" y="254" fill="#ffffff" font-family="Inter, Arial, sans-serif" font-size="72" font-weight="760">Build product UI with glass, motion, and tokens.</text>
  <text x="92" y="316" fill="#ffffff" fill-opacity="0.62" font-family="Inter, Arial, sans-serif" font-size="24">A React component library and registry workspace for dense operational interfaces.</text>
  <g>
    <rect x="88" y="384" width="362" height="316" rx="34" fill="#ffffff" fill-opacity="0.08" stroke="#ffffff" stroke-opacity="0.14"/>
    <rect x="118" y="414" width="72" height="72" rx="24" fill="#ffffff" fill-opacity="0.13"/>
    <rect x="212" y="428" width="180" height="18" rx="9" fill="#ffffff" fill-opacity="0.75"/>
    <rect x="212" y="462" width="124" height="14" rx="7" fill="#ffffff" fill-opacity="0.28"/>
    <rect x="118" y="536" width="272" height="22" rx="11" fill="#ffffff" fill-opacity="0.9"/>
    <rect x="118" y="586" width="220" height="18" rx="9" fill="#ffffff" fill-opacity="0.22"/>
    <rect x="118" y="626" width="152" height="48" rx="24" fill="#ffffff"/>
  </g>
  <g>
    <rect x="496" y="384" width="362" height="316" rx="34" fill="#ffffff" fill-opacity="0.075" stroke="#ffffff" stroke-opacity="0.14"/>
    <rect x="530" y="422" width="122" height="52" rx="26" fill="#ffffff"/>
    <rect x="666" y="422" width="122" height="52" rx="26" fill="#ffffff" fill-opacity="0.08" stroke="#ffffff" stroke-opacity="0.12"/>
    <rect x="530" y="528" width="280" height="18" rx="9" fill="#ffffff" fill-opacity="0.14"/>
    <rect x="530" y="528" width="168" height="18" rx="9" fill="#ffffff"/>
    <rect x="530" y="596" width="280" height="58" rx="29" fill="#ffffff" fill-opacity="0.08" stroke="#ffffff" stroke-opacity="0.12"/>
    <circle cx="574" cy="625" r="19" fill="#ffffff" fill-opacity="0.52"/>
  </g>
  <g>
    <rect x="904" y="384" width="448" height="316" rx="34" fill="#ffffff" fill-opacity="0.08" stroke="#ffffff" stroke-opacity="0.14"/>
    <rect x="936" y="420" width="384" height="54" rx="27" fill="#ffffff" fill-opacity="0.06" stroke="#ffffff" stroke-opacity="0.13"/>
    <rect x="964" y="440" width="166" height="14" rx="7" fill="#ffffff" fill-opacity="0.45"/>
    <rect x="936" y="506" width="384" height="54" rx="27" fill="#ffffff" fill-opacity="0.18"/>
    <rect x="964" y="526" width="220" height="14" rx="7" fill="#ffffff" fill-opacity="0.9"/>
    <rect x="936" y="592" width="384" height="54" rx="27" fill="#ffffff" fill-opacity="0.06" stroke="#ffffff" stroke-opacity="0.13"/>
    <rect x="964" y="612" width="190" height="14" rx="7" fill="#ffffff" fill-opacity="0.45"/>
  </g>
  <circle cx="1110" cy="192" r="190" fill="#ffffff" fill-opacity="0.08" filter="url(#blurred)"/>
</svg>
