<?xml version="1.0" encoding="UTF-8"?>
<svg xmlns="http://www.w3.org/2000/svg" viewBox="190.34 34.71 191.77 135.9" role="img" aria-label="Mastercard">
  <defs>
    <style>
      .st0 { fill: none; }
      .st1 { fill: #f79e1b; }
      .st4 { fill: #eb001b; }
      .st5 { fill: #ff5f00; }
    </style>
  </defs>
  <rect class="st0" x="190.34" y="34.71" width="191.77" height="135.9"/>
  <g>
    <rect class="st5" x="266.34" y="67.05" width="39.64" height="71.22"/>
    <path class="st4" d="M268.86,102.66c0-13.84,6.42-27.05,17.24-35.61-19.63-15.48-48.19-12.08-63.67,7.68-15.35,19.63-11.95,48.07,7.8,63.55,16.48,12.96,39.51,12.96,56,0-10.95-8.56-17.37-21.77-17.37-35.61h0Z"/>
    <path class="st1" d="M359.46,102.66c0,25.04-20.26,45.3-45.3,45.3-10.19,0-20.01-3.4-27.94-9.69,19.63-15.48,23.03-43.92,7.55-63.67-2.27-2.77-4.78-5.41-7.55-7.55,19.63-15.48,48.19-12.08,63.55,7.68,6.29,7.93,9.69,17.74,9.69,27.94h0Z"/>
  </g>
</svg>
